<svg width="203" height="26" viewBox="0 0 203 26" fill="none" xmlns="http://www.w3.org/2000/svg">
<path d="M12.3065 0.5L22.9643 6.65327V18.9598L12.3065 25.1131L1.64876 18.9598V6.65327L12.3065 0.5Z" fill="#065E7C"/>
<path d="M37.563 20.5H34.5663V8.32721C34.5663 7.47987 34.7316 6.76686 35.0623 6.18819C35.3999 5.60263 35.8718 5.16174 36.478 4.86551C37.0911 4.5624 37.8179 4.41084 38.6583 4.41084C38.9339 4.41084 39.1991 4.43151 39.454 4.47284C39.7089 4.50729 39.9569 4.55206 40.198 4.60718L40.167 6.84953C40.0361 6.81509 39.8984 6.79098 39.7537 6.7772C39.609 6.76342 39.4402 6.75653 39.2473 6.75653C38.8891 6.75653 38.5826 6.81853 38.3277 6.94253C38.0797 7.05964 37.8902 7.23531 37.7593 7.46954C37.6284 7.70376 37.563 7.98965 37.563 8.32721V20.5ZM39.795 9.31922V11.4272H32.9026V9.31922H39.795ZM40.88 15.0233V14.8063C40.88 13.9865 40.9971 13.2322 41.2314 12.5433C41.4656 11.8475 41.8066 11.2447 42.2544 10.7349C42.7022 10.2251 43.2533 9.82901 43.9077 9.54656C44.5622 9.25722 45.3131 9.11255 46.1604 9.11255C47.0078 9.11255 47.7621 9.25722 48.4234 9.54656C49.0848 9.82901 49.6393 10.2251 50.0871 10.7349C50.5418 11.2447 50.8862 11.8475 51.1205 12.5433C51.3547 13.2322 51.4718 13.9865 51.4718 14.8063V15.0233C51.4718 15.8362 51.3547 16.5905 51.1205 17.2863C50.8862 17.9752 50.5418 18.578 50.0871 19.0947C49.6393 19.6044 49.0882 20.0006 48.4338 20.283C47.7793 20.5654 47.0284 20.7067 46.1811 20.7067C45.3337 20.7067 44.5794 20.5654 43.9181 20.283C43.2636 20.0006 42.709 19.6044 42.2544 19.0947C41.8066 18.578 41.4656 17.9752 41.2314 17.2863C40.9971 16.5905 40.88 15.8362 40.88 15.0233ZM43.8561 14.8063V15.0233C43.8561 15.4917 43.8974 15.9292 43.9801 16.3356C44.0627 16.7421 44.1936 17.1003 44.3727 17.4103C44.5587 17.7134 44.7998 17.9511 45.0961 18.1233C45.3923 18.2955 45.754 18.3816 46.1811 18.3816C46.5944 18.3816 46.9492 18.2955 47.2454 18.1233C47.5417 17.9511 47.7793 17.7134 47.9584 17.4103C48.1375 17.1003 48.2684 16.7421 48.3511 16.3356C48.4407 15.9292 48.4854 15.4917 48.4854 15.0233V14.8063C48.4854 14.3516 48.4407 13.9245 48.3511 13.5249C48.2684 13.1185 48.1341 12.7603 47.9481 12.4503C47.769 12.1334 47.5313 11.8854 47.2351 11.7062C46.9389 11.5271 46.5806 11.4376 46.1604 11.4376C45.7402 11.4376 45.382 11.5271 45.0857 11.7062C44.7964 11.8854 44.5587 12.1334 44.3727 12.4503C44.1936 12.7603 44.0627 13.1185 43.9801 13.5249C43.8974 13.9245 43.8561 14.3516 43.8561 14.8063ZM52.8255 15.0233V14.8063C52.8255 13.9865 52.9426 13.2322 53.1768 12.5433C53.411 11.8475 53.752 11.2447 54.1998 10.7349C54.6476 10.2251 55.1987 9.82901 55.8532 9.54656C56.5076 9.25722 57.2585 9.11255 58.1059 9.11255C58.9532 9.11255 59.7075 9.25722 60.3689 9.54656C61.0302 9.82901 61.5848 10.2251 62.0326 10.7349C62.4872 11.2447 62.8317 11.8475 63.0659 12.5433C63.3001 13.2322 63.4173 13.9865 63.4173 14.8063V15.0233C63.4173 15.8362 63.3001 16.5905 63.0659 17.2863C62.8317 17.9752 62.4872 18.578 62.0326 19.0947C61.5848 19.6044 61.0337 20.0006 60.3792 20.283C59.7248 20.5654 58.9739 20.7067 58.1265 20.7067C57.2792 20.7067 56.5249 20.5654 55.8635 20.283C55.2091 20.0006 54.6545 19.6044 54.1998 19.0947C53.752 18.578 53.411 17.9752 53.1768 17.2863C52.9426 16.5905 52.8255 15.8362 52.8255 15.0233ZM55.8015 14.8063V15.0233C55.8015 15.4917 55.8428 15.9292 55.9255 16.3356C56.0082 16.7421 56.1391 17.1003 56.3182 17.4103C56.5042 17.7134 56.7453 17.9511 57.0415 18.1233C57.3377 18.2955 57.6994 18.3816 58.1265 18.3816C58.5399 18.3816 58.8947 18.2955 59.1909 18.1233C59.4871 17.9511 59.7248 17.7134 59.9039 17.4103C60.083 17.1003 60.2139 16.7421 60.2966 16.3356C60.3861 15.9292 60.4309 15.4917 60.4309 15.0233V14.8063C60.4309 14.3516 60.3861 13.9245 60.2966 13.5249C60.2139 13.1185 60.0796 12.7603 59.8936 12.4503C59.7144 12.1334 59.4768 11.8854 59.1805 11.7062C58.8843 11.5271 58.5261 11.4376 58.1059 11.4376C57.6856 11.4376 57.3274 11.5271 57.0312 11.7062C56.7419 11.8854 56.5042 12.1334 56.3182 12.4503C56.1391 12.7603 56.0082 13.1185 55.9255 13.5249C55.8428 13.9245 55.8015 14.3516 55.8015 14.8063ZM71.8493 18.0613V4.62784H74.846V20.5H72.149L71.8493 18.0613ZM64.7813 15.0439V14.8269C64.7813 13.9727 64.8777 13.1977 65.0706 12.5019C65.2635 11.7992 65.5459 11.1965 65.9179 10.6936C66.2899 10.1907 66.7481 9.80145 67.2923 9.52589C67.8365 9.25033 68.4565 9.11255 69.1523 9.11255C69.8068 9.11255 70.3785 9.25033 70.8677 9.52589C71.3637 9.80145 71.7839 10.1941 72.1283 10.7039C72.4797 11.2068 72.7621 11.8027 72.9757 12.4916C73.1892 13.1736 73.3442 13.921 73.4407 14.7339V15.2093C73.3442 15.9877 73.1892 16.7111 72.9757 17.3793C72.7621 18.0475 72.4797 18.6331 72.1283 19.136C71.7839 19.632 71.3637 20.0178 70.8677 20.2933C70.3717 20.5689 69.793 20.7067 69.1316 20.7067C68.4359 20.7067 67.8159 20.5654 67.2716 20.283C66.7343 20.0006 66.2796 19.6044 65.9076 19.0947C65.5425 18.5849 65.2635 17.9855 65.0706 17.2966C64.8777 16.6077 64.7813 15.8568 64.7813 15.0439ZM67.7573 14.8269V15.0439C67.7573 15.5055 67.7917 15.9361 67.8606 16.3356C67.9364 16.7352 68.057 17.09 68.2223 17.4C68.3945 17.7031 68.615 17.9408 68.8836 18.113C69.1592 18.2783 69.4933 18.361 69.886 18.361C70.3958 18.361 70.816 18.2473 71.1467 18.02C71.4773 17.7858 71.7288 17.4654 71.901 17.059C72.0801 16.6525 72.1835 16.1841 72.211 15.6536V14.2999C72.1903 13.8659 72.1283 13.4767 72.025 13.1323C71.9286 12.7809 71.7839 12.4813 71.591 12.2333C71.405 11.9852 71.1708 11.7924 70.8883 11.6546C70.6128 11.5168 70.2855 11.4479 69.9067 11.4479C69.5209 11.4479 69.1902 11.5375 68.9146 11.7166C68.6391 11.8888 68.4152 12.1265 68.243 12.4296C68.0776 12.7327 67.9536 13.0909 67.871 13.5043C67.7952 13.9107 67.7573 14.3516 67.7573 14.8269ZM87.5872 20.7067C86.7192 20.7067 85.9407 20.5689 85.2518 20.2933C84.5629 20.0109 83.9773 19.6217 83.4951 19.1257C83.0198 18.6296 82.6547 18.0544 82.3998 17.4C82.1449 16.7386 82.0174 16.036 82.0174 15.2919V14.8786C82.0174 14.0313 82.138 13.2563 82.3791 12.5536C82.6202 11.8509 82.9647 11.2412 83.4125 10.7246C83.8671 10.2079 84.4182 9.81178 85.0658 9.53622C85.7134 9.25378 86.4436 9.11255 87.2565 9.11255C88.0487 9.11255 88.7514 9.24344 89.3645 9.50522C89.9776 9.767 90.4909 10.139 90.9042 10.6212C91.3244 11.1035 91.6413 11.6821 91.8549 12.3573C92.0684 13.0255 92.1752 13.7695 92.1752 14.5893V15.8293H83.2885V13.8453H89.2508V13.6179C89.2508 13.2046 89.1751 12.836 89.0235 12.5123C88.8788 12.1816 88.6584 11.9198 88.3622 11.7269C88.0659 11.534 87.687 11.4376 87.2255 11.4376C86.8328 11.4376 86.4953 11.5237 86.2128 11.6959C85.9304 11.8681 85.6996 12.1093 85.5205 12.4193C85.3482 12.7293 85.2174 13.0944 85.1278 13.5146C85.0451 13.9279 85.0038 14.3826 85.0038 14.8786V15.2919C85.0038 15.7397 85.0658 16.1531 85.1898 16.532C85.3207 16.9109 85.5033 17.2381 85.7375 17.5136C85.9786 17.7892 86.2679 18.0028 86.6055 18.1543C86.9499 18.3059 87.3392 18.3816 87.7732 18.3816C88.3105 18.3816 88.8099 18.2783 89.2715 18.0716C89.74 17.8581 90.143 17.5377 90.4805 17.1106L91.9272 18.6813C91.693 19.0189 91.3726 19.3427 90.9662 19.6527C90.5666 19.9627 90.0844 20.2176 89.5195 20.4173C88.9546 20.6102 88.3105 20.7067 87.5872 20.7067ZM96.2672 9.31922L98.1169 12.7189L100.018 9.31922H103.191L100.029 14.7856L103.335 20.5H100.153L98.1376 16.904L96.1226 20.5H92.9399L96.2466 14.7856L93.0845 9.31922H96.2672ZM107.613 11.4686V24.7987H104.637V9.31922H107.396L107.613 11.4686ZM114.692 14.7856V15.0026C114.692 15.8155 114.595 16.5698 114.402 17.2656C114.216 17.9614 113.941 18.5676 113.576 19.0843C113.211 19.5941 112.756 19.9937 112.212 20.283C111.674 20.5654 111.054 20.7067 110.352 20.7067C109.67 20.7067 109.077 20.5689 108.574 20.2933C108.071 20.0178 107.648 19.632 107.303 19.136C106.966 18.6331 106.694 18.051 106.487 17.3896C106.28 16.7283 106.122 16.0187 106.012 15.2609V14.6926C106.122 13.8797 106.28 13.1357 106.487 12.4606C106.694 11.7786 106.966 11.1896 107.303 10.6936C107.648 10.1907 108.068 9.80145 108.564 9.52589C109.067 9.25033 109.656 9.11255 110.331 9.11255C111.041 9.11255 111.664 9.24689 112.201 9.51556C112.746 9.78423 113.2 10.17 113.565 10.6729C113.937 11.1758 114.216 11.7751 114.402 12.4709C114.595 13.1667 114.692 13.9383 114.692 14.7856ZM111.705 15.0026V14.7856C111.705 14.3103 111.664 13.8728 111.581 13.4733C111.506 13.0668 111.382 12.712 111.209 12.4089C111.044 12.1058 110.824 11.8716 110.548 11.7062C110.279 11.534 109.952 11.4479 109.566 11.4479C109.16 11.4479 108.812 11.5134 108.523 11.6442C108.24 11.7751 108.009 11.9646 107.83 12.2126C107.651 12.4606 107.517 12.7568 107.427 13.1013C107.338 13.4457 107.283 13.8349 107.262 14.2689V15.7053C107.296 16.2151 107.393 16.6732 107.551 17.0796C107.71 17.4792 107.954 17.7961 108.285 18.0303C108.616 18.2645 109.05 18.3816 109.587 18.3816C109.98 18.3816 110.31 18.2955 110.579 18.1233C110.848 17.9442 111.065 17.6996 111.23 17.3896C111.402 17.0796 111.523 16.7214 111.592 16.315C111.668 15.9085 111.705 15.4711 111.705 15.0026ZM119.683 4.62784V20.5H116.696V4.62784H119.683ZM121.667 15.0233V14.8063C121.667 13.9865 121.784 13.2322 122.018 12.5433C122.252 11.8475 122.593 11.2447 123.041 10.7349C123.489 10.2251 124.04 9.82901 124.695 9.54656C125.349 9.25722 126.1 9.11255 126.947 9.11255C127.795 9.11255 128.549 9.25722 129.21 9.54656C129.872 9.82901 130.426 10.2251 130.874 10.7349C131.329 11.2447 131.673 11.8475 131.907 12.5433C132.141 13.2322 132.259 13.9865 132.259 14.8063V15.0233C132.259 15.8362 132.141 16.5905 131.907 17.2863C131.673 17.9752 131.329 18.578 130.874 19.0947C130.426 19.6044 129.875 20.0006 129.221 20.283C128.566 20.5654 127.815 20.7067 126.968 20.7067C126.121 20.7067 125.366 20.5654 124.705 20.283C124.05 20.0006 123.496 19.6044 123.041 19.0947C122.593 18.578 122.252 17.9752 122.018 17.2863C121.784 16.5905 121.667 15.8362 121.667 15.0233ZM124.643 14.8063V15.0233C124.643 15.4917 124.684 15.9292 124.767 16.3356C124.85 16.7421 124.98 17.1003 125.16 17.4103C125.346 17.7134 125.587 17.9511 125.883 18.1233C126.179 18.2955 126.541 18.3816 126.968 18.3816C127.381 18.3816 127.736 18.2955 128.032 18.1233C128.328 17.9511 128.566 17.7134 128.745 17.4103C128.924 17.1003 129.055 16.7421 129.138 16.3356C129.227 15.9292 129.272 15.4917 129.272 15.0233V14.8063C129.272 14.3516 129.227 13.9245 129.138 13.5249C129.055 13.1185 128.921 12.7603 128.735 12.4503C128.556 12.1334 128.318 11.8854 128.022 11.7062C127.726 11.5271 127.367 11.4376 126.947 11.4376C126.527 11.4376 126.169 11.5271 125.873 11.7062C125.583 11.8854 125.346 12.1334 125.16 12.4503C124.98 12.7603 124.85 13.1185 124.767 13.5249C124.684 13.9245 124.643 14.3516 124.643 14.8063ZM137.064 11.7579V20.5H134.088V9.31922H136.888L137.064 11.7579ZM140.432 9.24689L140.381 12.0059C140.236 11.9852 140.06 11.968 139.854 11.9542C139.654 11.9336 139.471 11.9232 139.306 11.9232C138.886 11.9232 138.521 11.9784 138.211 12.0886C137.908 12.1919 137.653 12.3469 137.446 12.5536C137.246 12.7603 137.095 13.0117 136.991 13.3079C136.895 13.6042 136.84 13.9417 136.826 14.3206L136.227 14.1346C136.227 13.4113 136.299 12.7465 136.444 12.1403C136.588 11.5271 136.798 10.9932 137.074 10.5386C137.356 10.0839 137.701 9.73256 138.107 9.48456C138.514 9.23656 138.979 9.11255 139.502 9.11255C139.668 9.11255 139.836 9.12633 140.009 9.15389C140.181 9.17455 140.322 9.20555 140.432 9.24689ZM146.777 20.7067C145.909 20.7067 145.131 20.5689 144.442 20.2933C143.753 20.0109 143.167 19.6217 142.685 19.1257C142.21 18.6296 141.845 18.0544 141.59 17.4C141.335 16.7386 141.207 16.036 141.207 15.2919V14.8786C141.207 14.0313 141.328 13.2563 141.569 12.5536C141.81 11.8509 142.155 11.2412 142.602 10.7246C143.057 10.2079 143.608 9.81178 144.256 9.53622C144.903 9.25378 145.634 9.11255 146.446 9.11255C147.239 9.11255 147.941 9.24344 148.554 9.50522C149.168 9.767 149.681 10.139 150.094 10.6212C150.514 11.1035 150.831 11.6821 151.045 12.3573C151.258 13.0255 151.365 13.7695 151.365 14.5893V15.8293H142.478V13.8453H148.441V13.6179C148.441 13.2046 148.365 12.836 148.213 12.5123C148.069 12.1816 147.848 11.9198 147.552 11.7269C147.256 11.534 146.877 11.4376 146.415 11.4376C146.023 11.4376 145.685 11.5237 145.403 11.6959C145.12 11.8681 144.89 12.1093 144.71 12.4193C144.538 12.7293 144.407 13.0944 144.318 13.5146C144.235 13.9279 144.194 14.3826 144.194 14.8786V15.2919C144.194 15.7397 144.256 16.1531 144.38 16.532C144.511 16.9109 144.693 17.2381 144.927 17.5136C145.169 17.7892 145.458 18.0028 145.795 18.1543C146.14 18.3059 146.529 18.3816 146.963 18.3816C147.5 18.3816 148 18.2783 148.461 18.0716C148.93 17.8581 149.333 17.5377 149.67 17.1106L151.117 18.6813C150.883 19.0189 150.563 19.3427 150.156 19.6527C149.757 19.9627 149.274 20.2176 148.709 20.4173C148.145 20.6102 147.5 20.7067 146.777 20.7067ZM156.036 11.7579V20.5H153.06V9.31922H155.86L156.036 11.7579ZM159.405 9.24689L159.353 12.0059C159.208 11.9852 159.033 11.968 158.826 11.9542C158.626 11.9336 158.444 11.9232 158.278 11.9232C157.858 11.9232 157.493 11.9784 157.183 12.0886C156.88 12.1919 156.625 12.3469 156.418 12.5536C156.218 12.7603 156.067 13.0117 155.963 13.3079C155.867 13.6042 155.812 13.9417 155.798 14.3206L155.199 14.1346C155.199 13.4113 155.271 12.7465 155.416 12.1403C155.56 11.5271 155.771 10.9932 156.046 10.5386C156.329 10.0839 156.673 9.73256 157.08 9.48456C157.486 9.23656 157.951 9.11255 158.475 9.11255C158.64 9.11255 158.809 9.12633 158.981 9.15389C159.153 9.17455 159.294 9.20555 159.405 9.24689Z" fill="white"/>
<path d="M173.178 16.416V13.1523C173.178 12.9023 173.127 12.6855 173.025 12.502C172.928 12.3145 172.779 12.1699 172.58 12.0684C172.381 11.9668 172.135 11.916 171.842 11.916C171.568 11.916 171.328 11.9629 171.121 12.0566C170.918 12.1504 170.758 12.2734 170.641 12.4258C170.527 12.5781 170.471 12.7422 170.471 12.918H169.387C169.387 12.6914 169.445 12.4668 169.562 12.2441C169.68 12.0215 169.848 11.8203 170.066 11.6406C170.289 11.457 170.555 11.3125 170.863 11.207C171.176 11.0977 171.523 11.043 171.906 11.043C172.367 11.043 172.773 11.1211 173.125 11.2773C173.48 11.4336 173.758 11.6699 173.957 11.9863C174.16 12.2988 174.262 12.6914 174.262 13.1641V16.1172C174.262 16.3281 174.279 16.5527 174.314 16.791C174.354 17.0293 174.41 17.2344 174.484 17.4062V17.5H173.354C173.299 17.375 173.256 17.209 173.225 17.002C173.193 16.791 173.178 16.5957 173.178 16.416ZM173.365 13.6562L173.377 14.418H172.281C171.973 14.418 171.697 14.4434 171.455 14.4941C171.213 14.541 171.01 14.6133 170.846 14.7109C170.682 14.8086 170.557 14.9316 170.471 15.0801C170.385 15.2246 170.342 15.3945 170.342 15.5898C170.342 15.7891 170.387 15.9707 170.477 16.1348C170.566 16.2988 170.701 16.4297 170.881 16.5273C171.064 16.6211 171.289 16.668 171.555 16.668C171.887 16.668 172.18 16.5977 172.434 16.457C172.688 16.3164 172.889 16.1445 173.037 15.9414C173.189 15.7383 173.271 15.541 173.283 15.3496L173.746 15.8711C173.719 16.0352 173.645 16.2168 173.523 16.416C173.402 16.6152 173.24 16.8066 173.037 16.9902C172.838 17.1699 172.6 17.3203 172.322 17.4414C172.049 17.5586 171.74 17.6172 171.396 17.6172C170.967 17.6172 170.59 17.5332 170.266 17.3652C169.945 17.1973 169.695 16.9727 169.516 16.6914C169.34 16.4062 169.252 16.0879 169.252 15.7363C169.252 15.3965 169.318 15.0977 169.451 14.8398C169.584 14.5781 169.775 14.3613 170.025 14.1895C170.275 14.0137 170.576 13.8809 170.928 13.791C171.279 13.7012 171.672 13.6562 172.105 13.6562H173.365ZM179.963 16.2695V8.5H181.053V17.5H180.057L179.963 16.2695ZM175.697 14.4004V14.2773C175.697 13.793 175.756 13.3535 175.873 12.959C175.994 12.5605 176.164 12.2188 176.383 11.9336C176.605 11.6484 176.869 11.4297 177.174 11.2773C177.482 11.1211 177.826 11.043 178.205 11.043C178.604 11.043 178.951 11.1133 179.248 11.2539C179.549 11.3906 179.803 11.5918 180.01 11.8574C180.221 12.1191 180.387 12.4355 180.508 12.8066C180.629 13.1777 180.713 13.5977 180.76 14.0664V14.6055C180.717 15.0703 180.633 15.4883 180.508 15.8594C180.387 16.2305 180.221 16.5469 180.01 16.8086C179.803 17.0703 179.549 17.2715 179.248 17.4121C178.947 17.5488 178.596 17.6172 178.193 17.6172C177.822 17.6172 177.482 17.5371 177.174 17.377C176.869 17.2168 176.605 16.9922 176.383 16.7031C176.164 16.4141 175.994 16.0742 175.873 15.6836C175.756 15.2891 175.697 14.8613 175.697 14.4004ZM176.787 14.2773V14.4004C176.787 14.7168 176.818 15.0137 176.881 15.291C176.947 15.5684 177.049 15.8125 177.186 16.0234C177.322 16.2344 177.496 16.4004 177.707 16.5215C177.918 16.6387 178.17 16.6973 178.463 16.6973C178.822 16.6973 179.117 16.6211 179.348 16.4688C179.582 16.3164 179.77 16.1152 179.91 15.8652C180.051 15.6152 180.16 15.3438 180.238 15.0508V13.6387C180.191 13.4238 180.123 13.2168 180.033 13.0176C179.947 12.8145 179.834 12.6348 179.693 12.4785C179.557 12.3184 179.387 12.1914 179.184 12.0977C178.984 12.0039 178.748 11.957 178.475 11.957C178.178 11.957 177.922 12.0195 177.707 12.1445C177.496 12.2656 177.322 12.4336 177.186 12.6484C177.049 12.8594 176.947 13.1055 176.881 13.3867C176.818 13.6641 176.787 13.9609 176.787 14.2773ZM183.818 12.4199V17.5H182.729V11.1602H183.76L183.818 12.4199ZM183.596 14.0898L183.092 14.0723C183.096 13.6387 183.152 13.2383 183.262 12.8711C183.371 12.5 183.533 12.1777 183.748 11.9043C183.963 11.6309 184.23 11.4199 184.551 11.2715C184.871 11.1191 185.242 11.043 185.664 11.043C185.961 11.043 186.234 11.0859 186.484 11.1719C186.734 11.2539 186.951 11.3848 187.135 11.5645C187.318 11.7441 187.461 11.9746 187.562 12.2559C187.664 12.5371 187.715 12.877 187.715 13.2754V17.5H186.631V13.3281C186.631 12.9961 186.574 12.7305 186.461 12.5312C186.352 12.332 186.195 12.1875 185.992 12.0977C185.789 12.0039 185.551 11.957 185.277 11.957C184.957 11.957 184.689 12.0137 184.475 12.127C184.26 12.2402 184.088 12.3965 183.959 12.5957C183.83 12.7949 183.736 13.0234 183.678 13.2812C183.623 13.5352 183.596 13.8047 183.596 14.0898ZM187.703 13.4922L186.977 13.7148C186.98 13.3672 187.037 13.0332 187.146 12.7129C187.26 12.3926 187.422 12.1074 187.633 11.8574C187.848 11.6074 188.111 11.4102 188.424 11.2656C188.736 11.1172 189.094 11.043 189.496 11.043C189.836 11.043 190.137 11.0879 190.398 11.1777C190.664 11.2676 190.887 11.4062 191.066 11.5938C191.25 11.7773 191.389 12.0137 191.482 12.3027C191.576 12.5918 191.623 12.9355 191.623 13.334V17.5H190.533V13.3223C190.533 12.9668 190.477 12.6914 190.363 12.4961C190.254 12.2969 190.098 12.1582 189.895 12.0801C189.695 11.998 189.457 11.957 189.18 11.957C188.941 11.957 188.73 11.998 188.547 12.0801C188.363 12.1621 188.209 12.2754 188.084 12.4199C187.959 12.5605 187.863 12.7227 187.797 12.9062C187.734 13.0898 187.703 13.2852 187.703 13.4922ZM194.441 11.1602V17.5H193.352V11.1602H194.441ZM193.27 9.47852C193.27 9.30273 193.322 9.1543 193.428 9.0332C193.537 8.91211 193.697 8.85156 193.908 8.85156C194.115 8.85156 194.273 8.91211 194.383 9.0332C194.496 9.1543 194.553 9.30273 194.553 9.47852C194.553 9.64648 194.496 9.79102 194.383 9.91211C194.273 10.0293 194.115 10.0879 193.908 10.0879C193.697 10.0879 193.537 10.0293 193.428 9.91211C193.322 9.79102 193.27 9.64648 193.27 9.47852ZM197.266 12.5137V17.5H196.182V11.1602H197.207L197.266 12.5137ZM197.008 14.0898L196.557 14.0723C196.561 13.6387 196.625 13.2383 196.75 12.8711C196.875 12.5 197.051 12.1777 197.277 11.9043C197.504 11.6309 197.773 11.4199 198.086 11.2715C198.402 11.1191 198.752 11.043 199.135 11.043C199.447 11.043 199.729 11.0859 199.979 11.1719C200.229 11.2539 200.441 11.3867 200.617 11.5703C200.797 11.7539 200.934 11.9922 201.027 12.2852C201.121 12.5742 201.168 12.9277 201.168 13.3457V17.5H200.078V13.334C200.078 13.002 200.029 12.7363 199.932 12.5371C199.834 12.334 199.691 12.1875 199.504 12.0977C199.316 12.0039 199.086 11.957 198.812 11.957C198.543 11.957 198.297 12.0137 198.074 12.127C197.855 12.2402 197.666 12.3965 197.506 12.5957C197.35 12.7949 197.227 13.0234 197.137 13.2812C197.051 13.5352 197.008 13.8047 197.008 14.0898Z" fill="#82F3FF"/>
</svg>
