<svg width="161" height="26" viewBox="0 0 161 26" fill="none" xmlns="http://www.w3.org/2000/svg">
<path d="M12.3065 0L22.9643 6.15327V18.4598L12.3065 24.6131L1.64876 18.4598V6.15327L12.3065 0Z" fill="#065E7C"/>
<path d="M37.563 20H34.5663V7.82721C34.5663 6.97987 34.7316 6.26686 35.0623 5.68819C35.3999 5.10263 35.8718 4.66174 36.478 4.36551C37.0911 4.0624 37.8179 3.91084 38.6583 3.91084C38.9339 3.91084 39.1991 3.93151 39.454 3.97284C39.7089 4.00729 39.9569 4.05206 40.198 4.10718L40.167 6.34953C40.0361 6.31509 39.8984 6.29098 39.7537 6.2772C39.609 6.26342 39.4402 6.25653 39.2473 6.25653C38.8891 6.25653 38.5826 6.31853 38.3277 6.44253C38.0797 6.55964 37.8902 6.73531 37.7593 6.96954C37.6284 7.20376 37.563 7.48965 37.563 7.82721V20ZM39.795 8.81922V10.9272H32.9026V8.81922H39.795ZM40.88 14.5233V14.3063C40.88 13.4865 40.9971 12.7322 41.2314 12.0433C41.4656 11.3475 41.8066 10.7447 42.2544 10.2349C42.7022 9.72512 43.2533 9.32901 43.9077 9.04656C44.5622 8.75722 45.3131 8.61255 46.1604 8.61255C47.0078 8.61255 47.7621 8.75722 48.4234 9.04656C49.0848 9.32901 49.6393 9.72512 50.0871 10.2349C50.5418 10.7447 50.8862 11.3475 51.1205 12.0433C51.3547 12.7322 51.4718 13.4865 51.4718 14.3063V14.5233C51.4718 15.3362 51.3547 16.0905 51.1205 16.7863C50.8862 17.4752 50.5418 18.078 50.0871 18.5947C49.6393 19.1044 49.0882 19.5006 48.4338 19.783C47.7793 20.0654 47.0284 20.2067 46.1811 20.2067C45.3337 20.2067 44.5794 20.0654 43.9181 19.783C43.2636 19.5006 42.709 19.1044 42.2544 18.5947C41.8066 18.078 41.4656 17.4752 41.2314 16.7863C40.9971 16.0905 40.88 15.3362 40.88 14.5233ZM43.8561 14.3063V14.5233C43.8561 14.9917 43.8974 15.4292 43.9801 15.8356C44.0627 16.2421 44.1936 16.6003 44.3727 16.9103C44.5587 17.2134 44.7998 17.4511 45.0961 17.6233C45.3923 17.7955 45.754 17.8816 46.1811 17.8816C46.5944 17.8816 46.9492 17.7955 47.2454 17.6233C47.5417 17.4511 47.7793 17.2134 47.9584 16.9103C48.1375 16.6003 48.2684 16.2421 48.3511 15.8356C48.4407 15.4292 48.4854 14.9917 48.4854 14.5233V14.3063C48.4854 13.8516 48.4407 13.4245 48.3511 13.0249C48.2684 12.6185 48.1341 12.2603 47.9481 11.9503C47.769 11.6334 47.5313 11.3854 47.2351 11.2062C46.9389 11.0271 46.5806 10.9376 46.1604 10.9376C45.7402 10.9376 45.382 11.0271 45.0857 11.2062C44.7964 11.3854 44.5587 11.6334 44.3727 11.9503C44.1936 12.2603 44.0627 12.6185 43.9801 13.0249C43.8974 13.4245 43.8561 13.8516 43.8561 14.3063ZM52.8255 14.5233V14.3063C52.8255 13.4865 52.9426 12.7322 53.1768 12.0433C53.411 11.3475 53.752 10.7447 54.1998 10.2349C54.6476 9.72512 55.1987 9.32901 55.8532 9.04656C56.5076 8.75722 57.2585 8.61255 58.1059 8.61255C58.9532 8.61255 59.7075 8.75722 60.3689 9.04656C61.0302 9.32901 61.5848 9.72512 62.0326 10.2349C62.4872 10.7447 62.8317 11.3475 63.0659 12.0433C63.3001 12.7322 63.4173 13.4865 63.4173 14.3063V14.5233C63.4173 15.3362 63.3001 16.0905 63.0659 16.7863C62.8317 17.4752 62.4872 18.078 62.0326 18.5947C61.5848 19.1044 61.0337 19.5006 60.3792 19.783C59.7248 20.0654 58.9739 20.2067 58.1265 20.2067C57.2792 20.2067 56.5249 20.0654 55.8635 19.783C55.2091 19.5006 54.6545 19.1044 54.1998 18.5947C53.752 18.078 53.411 17.4752 53.1768 16.7863C52.9426 16.0905 52.8255 15.3362 52.8255 14.5233ZM55.8015 14.3063V14.5233C55.8015 14.9917 55.8428 15.4292 55.9255 15.8356C56.0082 16.2421 56.1391 16.6003 56.3182 16.9103C56.5042 17.2134 56.7453 17.4511 57.0415 17.6233C57.3377 17.7955 57.6994 17.8816 58.1265 17.8816C58.5399 17.8816 58.8947 17.7955 59.1909 17.6233C59.4871 17.4511 59.7248 17.2134 59.9039 16.9103C60.083 16.6003 60.2139 16.2421 60.2966 15.8356C60.3861 15.4292 60.4309 14.9917 60.4309 14.5233V14.3063C60.4309 13.8516 60.3861 13.4245 60.2966 13.0249C60.2139 12.6185 60.0796 12.2603 59.8936 11.9503C59.7144 11.6334 59.4768 11.3854 59.1805 11.2062C58.8843 11.0271 58.5261 10.9376 58.1059 10.9376C57.6856 10.9376 57.3274 11.0271 57.0312 11.2062C56.7419 11.3854 56.5042 11.6334 56.3182 11.9503C56.1391 12.2603 56.0082 12.6185 55.9255 13.0249C55.8428 13.4245 55.8015 13.8516 55.8015 14.3063ZM71.8493 17.5613V4.12784H74.846V20H72.149L71.8493 17.5613ZM64.7813 14.5439V14.3269C64.7813 13.4727 64.8777 12.6977 65.0706 12.0019C65.2635 11.2992 65.5459 10.6965 65.9179 10.1936C66.2899 9.69068 66.7481 9.30145 67.2923 9.02589C67.8365 8.75033 68.4565 8.61255 69.1523 8.61255C69.8068 8.61255 70.3785 8.75033 70.8677 9.02589C71.3637 9.30145 71.7839 9.69412 72.1283 10.2039C72.4797 10.7068 72.7621 11.3027 72.9757 11.9916C73.1892 12.6736 73.3442 13.421 73.4407 14.2339V14.7093C73.3442 15.4877 73.1892 16.2111 72.9757 16.8793C72.7621 17.5475 72.4797 18.1331 72.1283 18.636C71.7839 19.132 71.3637 19.5178 70.8677 19.7933C70.3717 20.0689 69.793 20.2067 69.1316 20.2067C68.4359 20.2067 67.8159 20.0654 67.2716 19.783C66.7343 19.5006 66.2796 19.1044 65.9076 18.5947C65.5425 18.0849 65.2635 17.4855 65.0706 16.7966C64.8777 16.1077 64.7813 15.3568 64.7813 14.5439ZM67.7573 14.3269V14.5439C67.7573 15.0055 67.7917 15.4361 67.8606 15.8356C67.9364 16.2352 68.057 16.59 68.2223 16.9C68.3945 17.2031 68.615 17.4408 68.8836 17.613C69.1592 17.7783 69.4933 17.861 69.886 17.861C70.3958 17.861 70.816 17.7473 71.1467 17.52C71.4773 17.2858 71.7288 16.9654 71.901 16.559C72.0801 16.1525 72.1835 15.6841 72.211 15.1536V13.7999C72.1903 13.3659 72.1283 12.9767 72.025 12.6323C71.9286 12.2809 71.7839 11.9813 71.591 11.7333C71.405 11.4852 71.1708 11.2924 70.8883 11.1546C70.6128 11.0168 70.2855 10.9479 69.9067 10.9479C69.5209 10.9479 69.1902 11.0375 68.9146 11.2166C68.6391 11.3888 68.4152 11.6265 68.243 11.9296C68.0776 12.2327 67.9536 12.5909 67.871 13.0043C67.7952 13.4107 67.7573 13.8516 67.7573 14.3269ZM87.5872 20.2067C86.7192 20.2067 85.9407 20.0689 85.2518 19.7933C84.5629 19.5109 83.9773 19.1217 83.4951 18.6257C83.0198 18.1296 82.6547 17.5544 82.3998 16.9C82.1449 16.2386 82.0174 15.536 82.0174 14.7919V14.3786C82.0174 13.5313 82.138 12.7563 82.3791 12.0536C82.6202 11.3509 82.9647 10.7412 83.4125 10.2246C83.8671 9.7079 84.4182 9.31178 85.0658 9.03622C85.7134 8.75378 86.4436 8.61255 87.2565 8.61255C88.0487 8.61255 88.7514 8.74344 89.3645 9.00522C89.9776 9.267 90.4909 9.63901 90.9042 10.1212C91.3244 10.6035 91.6413 11.1821 91.8549 11.8573C92.0684 12.5255 92.1752 13.2695 92.1752 14.0893V15.3293H83.2885V13.3453H89.2508V13.1179C89.2508 12.7046 89.1751 12.336 89.0235 12.0123C88.8788 11.6816 88.6584 11.4198 88.3622 11.2269C88.0659 11.034 87.687 10.9376 87.2255 10.9376C86.8328 10.9376 86.4953 11.0237 86.2128 11.1959C85.9304 11.3681 85.6996 11.6093 85.5205 11.9193C85.3482 12.2293 85.2174 12.5944 85.1278 13.0146C85.0451 13.4279 85.0038 13.8826 85.0038 14.3786V14.7919C85.0038 15.2397 85.0658 15.6531 85.1898 16.032C85.3207 16.4109 85.5033 16.7381 85.7375 17.0136C85.9786 17.2892 86.2679 17.5028 86.6055 17.6543C86.9499 17.8059 87.3392 17.8816 87.7732 17.8816C88.3105 17.8816 88.8099 17.7783 89.2715 17.5716C89.74 17.3581 90.143 17.0377 90.4805 16.6106L91.9272 18.1813C91.693 18.5189 91.3726 18.8427 90.9662 19.1527C90.5666 19.4627 90.0844 19.7176 89.5195 19.9173C88.9546 20.1102 88.3105 20.2067 87.5872 20.2067ZM96.2672 8.81922L98.1169 12.2189L100.018 8.81922H103.191L100.029 14.2856L103.335 20H100.153L98.1376 16.404L96.1226 20H92.9399L96.2466 14.2856L93.0845 8.81922H96.2672ZM107.613 10.9686V24.2987H104.637V8.81922H107.396L107.613 10.9686ZM114.692 14.2856V14.5026C114.692 15.3155 114.595 16.0698 114.402 16.7656C114.216 17.4614 113.941 18.0676 113.576 18.5843C113.211 19.0941 112.756 19.4937 112.212 19.783C111.674 20.0654 111.054 20.2067 110.352 20.2067C109.67 20.2067 109.077 20.0689 108.574 19.7933C108.071 19.5178 107.648 19.132 107.303 18.636C106.966 18.1331 106.694 17.551 106.487 16.8896C106.28 16.2283 106.122 15.5187 106.012 14.7609V14.1926C106.122 13.3797 106.28 12.6357 106.487 11.9606C106.694 11.2786 106.966 10.6896 107.303 10.1936C107.648 9.69068 108.068 9.30145 108.564 9.02589C109.067 8.75033 109.656 8.61255 110.331 8.61255C111.041 8.61255 111.664 8.74689 112.201 9.01556C112.746 9.28423 113.2 9.67001 113.565 10.1729C113.937 10.6758 114.216 11.2751 114.402 11.9709C114.595 12.6667 114.692 13.4383 114.692 14.2856ZM111.705 14.5026V14.2856C111.705 13.8103 111.664 13.3728 111.581 12.9733C111.506 12.5668 111.382 12.212 111.209 11.9089C111.044 11.6058 110.824 11.3716 110.548 11.2062C110.279 11.034 109.952 10.9479 109.566 10.9479C109.16 10.9479 108.812 11.0134 108.523 11.1442C108.24 11.2751 108.009 11.4646 107.83 11.7126C107.651 11.9606 107.517 12.2568 107.427 12.6013C107.338 12.9457 107.283 13.3349 107.262 13.7689V15.2053C107.296 15.7151 107.393 16.1732 107.551 16.5796C107.71 16.9792 107.954 17.2961 108.285 17.5303C108.616 17.7645 109.05 17.8816 109.587 17.8816C109.98 17.8816 110.31 17.7955 110.579 17.6233C110.848 17.4442 111.065 17.1996 111.23 16.8896C111.402 16.5796 111.523 16.2214 111.592 15.815C111.668 15.4085 111.705 14.9711 111.705 14.5026ZM119.683 4.12784V20H116.696V4.12784H119.683ZM121.667 14.5233V14.3063C121.667 13.4865 121.784 12.7322 122.018 12.0433C122.252 11.3475 122.593 10.7447 123.041 10.2349C123.489 9.72512 124.04 9.32901 124.695 9.04656C125.349 8.75722 126.1 8.61255 126.947 8.61255C127.795 8.61255 128.549 8.75722 129.21 9.04656C129.872 9.32901 130.426 9.72512 130.874 10.2349C131.329 10.7447 131.673 11.3475 131.907 12.0433C132.141 12.7322 132.259 13.4865 132.259 14.3063V14.5233C132.259 15.3362 132.141 16.0905 131.907 16.7863C131.673 17.4752 131.329 18.078 130.874 18.5947C130.426 19.1044 129.875 19.5006 129.221 19.783C128.566 20.0654 127.815 20.2067 126.968 20.2067C126.121 20.2067 125.366 20.0654 124.705 19.783C124.05 19.5006 123.496 19.1044 123.041 18.5947C122.593 18.078 122.252 17.4752 122.018 16.7863C121.784 16.0905 121.667 15.3362 121.667 14.5233ZM124.643 14.3063V14.5233C124.643 14.9917 124.684 15.4292 124.767 15.8356C124.85 16.2421 124.98 16.6003 125.16 16.9103C125.346 17.2134 125.587 17.4511 125.883 17.6233C126.179 17.7955 126.541 17.8816 126.968 17.8816C127.381 17.8816 127.736 17.7955 128.032 17.6233C128.328 17.4511 128.566 17.2134 128.745 16.9103C128.924 16.6003 129.055 16.2421 129.138 15.8356C129.227 15.4292 129.272 14.9917 129.272 14.5233V14.3063C129.272 13.8516 129.227 13.4245 129.138 13.0249C129.055 12.6185 128.921 12.2603 128.735 11.9503C128.556 11.6334 128.318 11.3854 128.022 11.2062C127.726 11.0271 127.367 10.9376 126.947 10.9376C126.527 10.9376 126.169 11.0271 125.873 11.2062C125.583 11.3854 125.346 11.6334 125.16 11.9503C124.98 12.2603 124.85 12.6185 124.767 13.0249C124.684 13.4245 124.643 13.8516 124.643 14.3063ZM137.064 11.2579V20H134.088V8.81922H136.888L137.064 11.2579ZM140.432 8.74689L140.381 11.5059C140.236 11.4852 140.06 11.468 139.854 11.4542C139.654 11.4336 139.471 11.4232 139.306 11.4232C138.886 11.4232 138.521 11.4784 138.211 11.5886C137.908 11.6919 137.653 11.8469 137.446 12.0536C137.246 12.2603 137.095 12.5117 136.991 12.8079C136.895 13.1042 136.84 13.4417 136.826 13.8206L136.227 13.6346C136.227 12.9113 136.299 12.2465 136.444 11.6403C136.588 11.0271 136.798 10.4932 137.074 10.0386C137.356 9.5839 137.701 9.23256 138.107 8.98456C138.514 8.73656 138.979 8.61255 139.502 8.61255C139.668 8.61255 139.836 8.62633 140.009 8.65389C140.181 8.67455 140.322 8.70555 140.432 8.74689ZM146.777 20.2067C145.909 20.2067 145.131 20.0689 144.442 19.7933C143.753 19.5109 143.167 19.1217 142.685 18.6257C142.21 18.1296 141.845 17.5544 141.59 16.9C141.335 16.2386 141.207 15.536 141.207 14.7919V14.3786C141.207 13.5313 141.328 12.7563 141.569 12.0536C141.81 11.3509 142.155 10.7412 142.602 10.2246C143.057 9.7079 143.608 9.31178 144.256 9.03622C144.903 8.75378 145.634 8.61255 146.446 8.61255C147.239 8.61255 147.941 8.74344 148.554 9.00522C149.168 9.267 149.681 9.63901 150.094 10.1212C150.514 10.6035 150.831 11.1821 151.045 11.8573C151.258 12.5255 151.365 13.2695 151.365 14.0893V15.3293H142.478V13.3453H148.441V13.1179C148.441 12.7046 148.365 12.336 148.213 12.0123C148.069 11.6816 147.848 11.4198 147.552 11.2269C147.256 11.034 146.877 10.9376 146.415 10.9376C146.023 10.9376 145.685 11.0237 145.403 11.1959C145.12 11.3681 144.89 11.6093 144.71 11.9193C144.538 12.2293 144.407 12.5944 144.318 13.0146C144.235 13.4279 144.194 13.8826 144.194 14.3786V14.7919C144.194 15.2397 144.256 15.6531 144.38 16.032C144.511 16.4109 144.693 16.7381 144.927 17.0136C145.169 17.2892 145.458 17.5028 145.795 17.6543C146.14 17.8059 146.529 17.8816 146.963 17.8816C147.5 17.8816 148 17.7783 148.461 17.5716C148.93 17.3581 149.333 17.0377 149.67 16.6106L151.117 18.1813C150.883 18.5189 150.563 18.8427 150.156 19.1527C149.757 19.4627 149.274 19.7176 148.709 19.9173C148.145 20.1102 147.5 20.2067 146.777 20.2067ZM156.036 11.2579V20H153.06V8.81922H155.86L156.036 11.2579ZM159.405 8.74689L159.353 11.5059C159.208 11.4852 159.033 11.468 158.826 11.4542C158.626 11.4336 158.444 11.4232 158.278 11.4232C157.858 11.4232 157.493 11.4784 157.183 11.5886C156.88 11.6919 156.625 11.8469 156.418 12.0536C156.218 12.2603 156.067 12.5117 155.963 12.8079C155.867 13.1042 155.812 13.4417 155.798 13.8206L155.199 13.6346C155.199 12.9113 155.271 12.2465 155.416 11.6403C155.56 11.0271 155.771 10.4932 156.046 10.0386C156.329 9.5839 156.673 9.23256 157.08 8.98456C157.486 8.73656 157.951 8.61255 158.475 8.61255C158.64 8.61255 158.809 8.62633 158.981 8.65389C159.153 8.67455 159.294 8.70555 159.405 8.74689Z" fill="white"/>
</svg>
